<svg width="24" height="24" viewBox="0 0 24 24" fill="none" xmlns="http://www.w3.org/2000/svg">
<rect width="24" height="24" fill="white" style="mix-blend-mode:multiply"/>
<path d="M12 1.5C9.56567 1.51658 7.21276 2.37849 5.34375 3.93828C3.47473 5.49807 2.20577 7.65882 1.75394 10.0509C1.3021 12.443 1.69547 14.9177 2.86675 17.0518C4.03803 19.1858 5.91444 20.8466 8.17498 21.75C8.02306 20.7558 8.02306 19.7442 8.17498 18.75L9.41249 13.5C9.21664 13.0245 9.11967 12.5142 9.12749 12C9.12749 10.545 9.97499 9.45 11.025 9.45C11.2152 9.44714 11.4038 9.48543 11.5778 9.56224C11.7519 9.63906 11.9072 9.75258 12.0333 9.89504C12.1594 10.0375 12.2532 10.2055 12.3083 10.3876C12.3634 10.5697 12.3784 10.7615 12.3525 10.95C12.3525 11.85 11.7825 13.2 11.4825 14.445C11.4179 14.6772 11.4102 14.9215 11.4601 15.1573C11.51 15.3931 11.6159 15.6133 11.769 15.7995C11.922 15.9857 12.1176 16.1322 12.3393 16.2267C12.561 16.3212 12.8022 16.361 13.0425 16.3425C14.9025 16.3425 16.3425 14.37 16.3425 11.535C16.3612 10.9589 16.2596 10.3853 16.0442 9.85061C15.8288 9.31598 15.5044 8.8321 15.0916 8.42986C14.6787 8.02762 14.1866 7.71584 13.6465 7.51442C13.1065 7.31299 12.5304 7.22634 11.955 7.26C11.3407 7.23361 10.7274 7.33216 10.1522 7.54966C9.57709 7.76717 9.05206 8.09912 8.60894 8.52542C8.16581 8.95172 7.81379 9.46351 7.57419 10.0298C7.33459 10.5961 7.21239 11.2051 7.21498 11.82C7.20665 12.6766 7.46914 13.5139 7.96498 14.2125C8.00104 14.2526 8.02673 14.3009 8.0398 14.3532C8.05287 14.4055 8.05294 14.4602 8.03999 14.5125C7.95749 14.8425 7.77749 15.5625 7.74749 15.705C7.71748 15.8475 7.58998 15.9375 7.39498 15.8475C6.08248 15.2325 5.26498 13.32 5.26498 11.775C5.26498 8.4675 7.67249 5.4225 12.2025 5.4225C15.84 5.4225 18.675 8.0175 18.675 11.49C18.675 15.105 16.425 18.015 13.2225 18.015C12.753 18.0313 12.2869 17.9301 11.8664 17.7206C11.446 17.511 11.0846 17.1997 10.815 16.815L10.1625 19.3125C9.8497 20.2831 9.41095 21.2085 8.85749 22.065C9.87732 22.3664 10.9366 22.513 12 22.5C14.7848 22.5 17.4555 21.3938 19.4246 19.4246C21.3937 17.4555 22.5 14.7848 22.5 12C22.5 9.21523 21.3937 6.54451 19.4246 4.57538C17.4555 2.60625 14.7848 1.5 12 1.5Z" fill="white"/>
</svg>
