<svg width="24" height="24" viewBox="0 0 24 24" fill="none" xmlns="http://www.w3.org/2000/svg">
<rect width="24" height="24" fill="white" style="mix-blend-mode:multiply"/>
<path d="M20.9325 13.4101C21.0081 12.9439 21.0457 12.4723 21.045 12.0001C21.045 9.60117 20.0921 7.30054 18.3958 5.60427C16.6995 3.90801 14.3989 2.95505 12 2.95505C11.5277 2.95432 11.0562 2.99194 10.59 3.06755C9.54457 2.44131 8.31987 2.18228 7.11039 2.33162C5.90091 2.48095 4.77599 3.03008 3.91427 3.89181C3.05254 4.75353 2.50341 5.87845 2.35408 7.08793C2.20475 8.29741 2.46377 9.52211 3.09001 10.5676C3.00564 11.0405 2.96049 11.5197 2.95501 12.0001C2.95501 14.3989 3.90797 16.6996 5.60423 18.3958C7.3005 20.0921 9.60113 21.0451 12 21.0451C12.4723 21.0458 12.9438 21.0082 13.41 20.9326C14.4555 21.5588 15.6802 21.8178 16.8896 21.6685C18.0991 21.5192 19.224 20.97 20.0858 20.1083C20.9475 19.2466 21.4966 18.1217 21.6459 16.9122C21.7953 15.7027 21.5363 14.478 20.91 13.4326L20.9325 13.4101ZM16.2975 16.1101C15.8742 16.6953 15.2908 17.1459 14.6175 17.4076C13.7868 17.7336 12.8997 17.8916 12.0075 17.8726C10.969 17.916 9.93591 17.7022 9.00001 17.2501C8.45438 16.9567 7.98647 16.5377 7.63501 16.0276C7.31308 15.5918 7.13011 15.069 7.11001 14.5276C7.10922 14.3871 7.13746 14.2479 7.19295 14.1189C7.24845 13.9898 7.33001 13.8736 7.43251 13.7776C7.65968 13.5842 7.9521 13.485 8.25001 13.5001C8.49898 13.4953 8.74129 13.5806 8.93251 13.7401C9.14183 13.9359 9.30347 14.177 9.40501 14.4451C9.53513 14.7583 9.70125 15.0553 9.90001 15.3301C10.0981 15.5838 10.3557 15.7847 10.65 15.9151C11.0498 16.0866 11.4829 16.166 11.9175 16.1476C12.5365 16.1775 13.1496 16.0151 13.6725 15.6826C13.8732 15.565 14.0401 15.3976 14.1571 15.1965C14.274 14.9955 14.337 14.7676 14.34 14.5351C14.3465 14.3722 14.3184 14.2098 14.2577 14.0586C14.1969 13.9073 14.1049 13.7707 13.9875 13.6576C13.7205 13.4115 13.3993 13.2317 13.05 13.1326C12.66 13.0051 12.1425 12.8776 11.49 12.7351C10.7406 12.5606 10.0098 12.3145 9.30751 12.0001C8.75493 11.7736 8.26768 11.4127 7.89001 10.9501C7.53181 10.4732 7.34665 9.88865 7.36501 9.29255C7.35895 8.68656 7.55415 8.09568 7.92001 7.61255C8.3379 7.09336 8.89442 6.70328 9.52501 6.48755C10.3224 6.22272 11.1602 6.10084 12 6.12755C12.6571 6.11593 13.3121 6.20445 13.9425 6.39005C14.4373 6.53696 14.902 6.77059 15.315 7.08005C15.64 7.32418 15.9108 7.63322 16.11 7.98755C16.2721 8.27378 16.3598 8.59613 16.365 8.92505C16.3641 9.06527 16.335 9.20387 16.2796 9.33268C16.2242 9.46149 16.1436 9.57791 16.0425 9.67505C15.9404 9.78564 15.8162 9.87352 15.678 9.93296C15.5397 9.99239 15.3905 10.0221 15.24 10.0201C14.9987 10.0388 14.7596 9.96358 14.5725 9.81005C14.3757 9.62043 14.2111 9.40005 14.085 9.15755C13.8993 8.7753 13.6302 8.43956 13.2975 8.17505C12.861 7.90292 12.3471 7.78171 11.835 7.83005C11.3093 7.80789 10.7884 7.93812 10.335 8.20505C10.1703 8.293 10.0312 8.42214 9.93132 8.57988C9.83142 8.73762 9.77412 8.91856 9.76501 9.10505C9.75908 9.30882 9.8255 9.5081 9.95251 9.66755C10.1021 9.84087 10.286 9.98132 10.4925 10.0801C10.7125 10.1938 10.9437 10.2843 11.1825 10.3501C11.4225 10.4176 11.8125 10.5151 12.36 10.6426C13.05 10.7926 13.665 10.9576 14.2275 11.1376C14.7307 11.2908 15.2102 11.5129 15.6525 11.7976C16.0383 12.0416 16.3558 12.3796 16.575 12.7801C16.7979 13.2367 16.9011 13.7426 16.875 14.2501C16.8818 14.9152 16.6798 15.5657 16.2975 16.1101Z" fill="white"/>
</svg>
