<svg width="16" height="16" viewBox="0 0 16 16" fill="none" xmlns="http://www.w3.org/2000/svg">
<rect width="16" height="16" fill="white" style="mix-blend-mode:multiply"/>
<path d="M5 15C5.55228 15 6 14.5523 6 14C6 13.4477 5.55228 13 5 13C4.44772 13 4 13.4477 4 14C4 14.5523 4.44772 15 5 15Z" fill="#2A254B"/>
<path d="M12 15C12.5523 15 13 14.5523 13 14C13 13.4477 12.5523 13 12 13C11.4477 13 11 13.4477 11 14C11 14.5523 11.4477 15 12 15Z" fill="#2A254B"/>
<path d="M14 3.49998H2.91L2.5 1.39998C2.47662 1.28534 2.41379 1.18253 2.32243 1.10944C2.23107 1.03636 2.11697 0.997621 2 0.99998H0V1.99998H1.59L3.5 11.6C3.52338 11.7146 3.58621 11.8174 3.67757 11.8905C3.76893 11.9636 3.88303 12.0023 4 12H13V11H4.41L4 8.99998H13C13.1156 9.0028 13.2286 8.96549 13.3197 8.89438C13.4109 8.82327 13.4746 8.72277 13.5 8.60998L14.5 4.10998C14.5168 4.03579 14.5164 3.95876 14.4989 3.88475C14.4814 3.81073 14.4472 3.74169 14.399 3.68286C14.3508 3.62404 14.2898 3.577 14.2206 3.5453C14.1515 3.51361 14.076 3.49811 14 3.49998ZM12.6 7.99998H3.81L3.11 4.49998H13.375L12.6 7.99998Z" fill="#2A254B"/>
</svg>
